<svg width="1920" height="1442" viewBox="0 0 1920 1442" fill="none" xmlns="http://www.w3.org/2000/svg">
<g clip-path="url(#clip0_228_22)">
<g style="mix-blend-mode:soft-light" opacity="0.35">
<path fill-rule="evenodd" clip-rule="evenodd" d="M1630.6 1271.17C1729.75 1412.07 1716.57 1418.42 1664.46 1414.88C1642.81 1413.41 1607.88 1349.39 1567.41 1275.2C1510.49 1170.88 1442.61 1046.43 1385.19 1047.44C1328.14 1048.44 1145.6 1287.22 1047.39 1545.46C1000.87 1541.24 955.918 1541.62 914.099 1546.84C906.787 1547.75 897.396 1549.09 886.295 1550.68C767.558 1567.64 453.251 1612.53 395.264 1459.22C352.314 1345.67 512.814 1363.3 664.736 1379.98C800.139 1394.85 928.728 1408.97 900.382 1328.8C876.963 1262.56 797.16 1203.26 718.902 1145.1C597.034 1054.54 478.913 966.758 583.31 859.919C604.631 838.098 715.326 971.116 817.65 1094.08C893.752 1185.53 965.225 1271.41 991.856 1283.9C1216.1 1389.01 1294.42 893.985 1238.23 787.093C1182.05 680.2 972.308 520.924 911.678 572.686C855.165 620.934 841.276 690.95 879.885 774.183C897.689 812.566 933.587 860.099 970.101 908.447C1051.57 1016.32 1136.11 1128.26 1029.59 1151.69C1004.02 1170.1 913.874 1049.94 812.413 914.702C698.591 762.987 570.53 592.292 503.438 576.968C379.698 548.704 201.609 677.601 306.429 809.559C337.258 848.37 385.087 894.384 436.159 943.517C537.727 1041.23 652.12 1151.28 671.13 1241.56C689.118 1326.98 542.014 1284.75 383.249 1239.18C251.87 1201.47 112.506 1161.46 52.0959 1189.6C-81.3166 1251.74 -51.2896 1400.42 26.7307 1461.72C284.327 1664.09 754.224 1685.04 1009.37 1663.02C1009.38 1663.02 1009.38 1663.02 1009.39 1663.02C970.554 1811.07 969.584 1954.7 1045.6 2053.22C1149.74 2188.19 1412.98 2262.98 1537.97 2201.18C1629.32 2156.01 1727.35 2013.96 1652.25 1892.43C1550.5 1727.79 1360.63 1614.56 1173.75 1567.31C1178.49 1379.21 1241.05 1188.68 1388.52 1195.95C1441.67 1198.57 1450.36 1284.84 1459.9 1379.54C1467.93 1459.25 1476.56 1544.93 1512.81 1591.72C1592.11 1694.1 1691 1732.46 1758.3 1690.06C1894.04 1604.54 1833.89 1390.25 1739.53 1229.24C1698 1158.38 1646.63 1020.82 1702.08 1052.88C1732.06 1070.21 1777.27 1139.42 1827.2 1215.85C1913.23 1347.55 2013.26 1500.68 2073.51 1446.76C2144.7 1383.06 2173 1228.57 2100.64 1123.42C2017.59 1002.71 1821.6 870.472 1675.84 858.691C1506.18 844.977 1531.44 1130.27 1630.6 1271.17ZM1230.51 1876.35C1201.97 1827.98 1182.82 1748.59 1176.11 1660.79C1237.57 1707.86 1351.85 1804.21 1357.53 1877.56C1361.89 1933.76 1260.58 1927.32 1230.51 1876.35Z" fill="#F9F5E9"/>
</g>
</g>
<defs>
<clipPath id="clip0_228_22">
<rect width="1920" height="1442" fill="white"/>
</clipPath>
</defs>
</svg>
