<svg width="160" height="90" viewBox="0 0 160 90" fill="none" xmlns="http://www.w3.org/2000/svg">
<mask id="path-1-outside-1_338_407" maskUnits="userSpaceOnUse" x="0" y="0" width="160" height="90" fill="black">
<rect fill="white" width="160" height="90"/>
<path d="M46.5556 18.5746C47.227 17.8808 47.8424 17.6234 48.402 17.8025C48.9615 17.9815 49.051 18.5746 48.6705 19.5817C48.3124 20.5889 49.8343 21.0141 53.2362 20.8574H60.0846C70.8049 20.8574 78.6828 21.6072 83.7184 23.1067C84.9494 24.9643 79.4438 25.2328 67.2016 23.9124L55.1161 23.8452C49.051 23.9124 45.2351 24.8076 43.6685 26.5309C42.1242 28.2542 41.7885 29.3397 42.6614 29.7873C47.8089 31.5106 50.6064 33.9165 51.0541 37.005C51.5017 40.0711 51.4009 42.6113 50.7519 44.6256C49.4762 48.1617 47.3165 51.1719 44.2728 53.6561C41.2514 56.1403 36.6186 58.3896 30.3744 60.4038C24.8017 60.8738 19.6877 58.9043 15.0326 54.4954C7.93796 59.8667 3.88709 62.2614 2.87996 61.6795C1.82808 61.6795 1.20142 60.6948 1 58.7253C1 57.5167 4.2228 53.2309 10.6684 45.8677C8.72128 39.5116 8.28486 33.301 9.35913 27.2359C9.58293 24.2145 21.0082 22.1779 43.6349 21.126C44.933 20.0965 45.9065 19.246 46.5556 18.5746ZM20.9075 26.0609L16.7447 26.833C13.7681 27.4373 12.1679 29.0151 11.9441 31.5665L11.9776 36.535C12.2238 39.5116 12.5819 41.6266 13.0519 42.8799C25.0031 36.121 32.2208 31.9246 34.7051 30.2908C37.2117 28.657 39.3043 26.6988 40.9828 24.4159L31.7173 24.6509L20.9075 26.0609ZM16.879 51.7761L19.1954 53.9247C22.1272 56.4313 25.5514 57.6734 29.468 57.651C39.875 54.3163 46.0184 49.4933 47.8984 43.182L48.0327 41.1342C47.9655 36.7476 46.0072 34.0396 42.1578 33.0101C37.1446 33.2786 30.7997 37.6428 23.1232 46.1027C21.5789 47.4231 19.4975 49.3143 16.879 51.7761ZM14.059 46.1027L15.8047 49.7619L24.9695 40.6306C26.9838 38.594 26.2117 38.5269 22.6532 40.4292C17.9756 42.8911 15.1109 44.7822 14.059 46.1027ZM5.3642 55.7375C4.15565 57.2594 3.78638 58.1098 4.25637 58.2889C4.72636 58.4679 5.5992 58.1434 6.87489 57.3153C8.15058 56.4872 10.3215 54.8423 13.3876 52.3804L11.8098 49.0905C10.2432 49.7171 8.09463 51.9328 5.3642 55.7375ZM59.3125 45.6327C61.2148 44.8046 63.0836 44.5472 64.9188 44.8606C66.754 45.1515 67.6828 46.3824 67.7052 48.5533C67.7052 51.6195 61.7296 53.8016 49.7784 55.0996C47.2717 55.8158 46.0408 56.6887 46.0856 57.7182C46.1527 58.7477 46.6115 59.3743 47.462 59.5981C48.3348 59.7996 49.2524 59.945 50.2148 60.0346C51.1995 60.1017 54.8811 59.5086 61.2596 58.2553C67.638 56.9796 70.7825 56.5432 70.693 56.946C70.6258 57.3265 67.6045 58.2889 61.6289 59.8331C55.6756 61.355 50.7967 61.9705 46.992 61.6795C44.4406 60.9633 43.4223 59.5198 43.937 57.3489L44.2056 55.8382H41.9564C41.7773 55.3011 42.1578 54.8087 43.0978 54.3611C44.0601 53.8911 49.465 50.9816 59.3125 45.6327ZM55.3847 49.9969C48.4243 52.9735 48.76 53.7344 56.3918 52.2797C62.5465 50.7578 65.6238 49.4486 65.6238 48.3519C65.6238 47.2553 64.2809 46.8524 61.5953 47.1434L55.3847 49.9969ZM127.092 1.62137C128.412 0.793292 129.934 1.54304 131.658 3.87061C132.15 5.05678 131.893 5.56034 130.885 5.3813L127.864 3.87061L99.6981 33.2786L86.0012 47.6134C90.0521 47.6134 92.1111 48.2176 92.1783 49.4262C92.4245 50.1871 92.1671 51.004 91.4061 51.8768C90.6452 52.7497 89.8619 53.5442 89.0562 54.2604C88.2505 54.9766 87.7357 55.5249 87.5119 55.9053C95.9718 52.9064 99.2729 52.4028 97.4153 54.3947C89.6045 57.7965 85.1396 59.6765 84.0206 60.0346C82.9239 60.3926 81.8832 60.5941 80.8985 60.6388C79.9361 60.6836 79.6004 60.1129 79.8914 58.9267C87.5455 52.9511 89.8283 50.1871 86.7398 50.6347C81.5699 50.6347 76.6014 53.2309 71.8344 58.4232C67.0673 63.6154 63.9117 66.8942 62.3674 68.2594C60.8231 69.6022 55.6085 73.4964 46.7234 79.942C42.7844 82.5606 38.7671 84.5188 34.6715 85.8169C30.5535 87.1374 27.5657 87.9431 25.7081 88.234C23.8281 88.5473 22.1272 88.5921 20.6053 88.3683C19.0611 88.1669 17.9644 87.3724 17.3154 85.9848C16.6664 84.5972 16.8678 82.9075 17.9197 80.9156C18.9492 78.9237 20.583 77.1221 22.821 75.5107C33.407 67.6999 45.582 60.9186 59.346 55.1668L62.7031 53.9582C76.1762 50.8473 84.1325 47.0986 86.5719 42.712L87.3105 41.8056C96.3299 33.0324 106.681 22.4353 118.363 10.0141L127.092 1.62137ZM21.9817 84.9441C22.2727 85.526 23.5931 85.6714 25.9431 85.3805L33.5301 83.1313C42.0571 80.4904 50.696 75.1638 59.4467 67.1516C68.1752 59.1393 72.3827 54.9877 72.0694 54.6968C71.756 54.3835 71.3196 54.2828 70.7601 54.3947C61.8303 55.4465 50.1588 60.7283 35.7458 70.2401C28.9197 73.9329 24.3541 77.8942 22.0489 82.1241C21.6908 83.4222 21.6684 84.3622 21.9817 84.9441ZM114.503 45.6327C116.405 44.8046 118.274 44.5472 120.109 44.8606C121.944 45.1515 122.873 46.3824 122.896 48.5533C122.896 51.6195 116.92 53.8016 104.969 55.0996C102.462 55.8158 101.231 56.6887 101.276 57.7182C101.343 58.7477 101.802 59.3743 102.652 59.5981C103.525 59.7996 104.443 59.945 105.405 60.0346C106.39 60.1017 110.072 59.5086 116.45 58.2553C122.828 56.9796 125.973 56.5432 125.883 56.946C125.816 57.3265 122.795 58.2889 116.819 59.8331C110.866 61.355 105.987 61.9705 102.182 61.6795C99.631 60.9633 98.6127 59.5198 99.1274 57.3489L99.396 55.8382H97.1468C96.9677 55.3011 97.3482 54.8087 98.2882 54.3611C99.2505 53.8911 104.655 50.9816 114.503 45.6327ZM110.575 49.9969C103.615 52.9735 103.95 53.7344 111.582 52.2797C117.737 50.7578 120.814 49.4486 120.814 48.3519C120.814 47.2553 119.471 46.8524 116.786 47.1434L110.575 49.9969ZM135.82 44.6927C138.103 44.536 139.603 44.8494 140.319 45.6327C141.057 46.3936 141.427 47.0762 141.427 47.6805C141.449 48.2848 141.326 48.8107 141.057 49.2583C140.789 49.6836 138.159 51.653 133.168 55.1668C131.646 56.5991 131.098 57.5056 131.523 57.886C131.948 58.2441 132.877 58.3112 134.31 58.0874C138.428 56.4984 145.847 54.7416 156.567 52.8168C158.268 52.8168 159.118 53.0518 159.118 53.5218C159.118 53.9918 153.188 55.4689 141.326 57.9532C133.448 60.7507 129.073 61.8474 128.2 61.2431C127.349 60.6164 127.148 59.6765 127.595 58.4232C127.886 57.237 130.259 55.0549 134.712 51.8768L137.331 49.3255C138.181 47.826 138.081 47.065 137.029 47.0427C135.977 47.0203 134.466 47.3896 132.497 48.1505C130.527 48.889 129.33 49.8402 128.905 51.004C128.479 52.1454 127.808 52.6825 126.89 52.6154C125.973 52.5259 125.525 51.6642 125.548 50.0305C130.136 46.6062 133.56 44.827 135.82 44.6927Z"/>
</mask>
<path d="M46.5556 18.5746C47.227 17.8808 47.8424 17.6234 48.402 17.8025C48.9615 17.9815 49.051 18.5746 48.6705 19.5817C48.3124 20.5889 49.8343 21.0141 53.2362 20.8574H60.0846C70.8049 20.8574 78.6828 21.6072 83.7184 23.1067C84.9494 24.9643 79.4438 25.2328 67.2016 23.9124L55.1161 23.8452C49.051 23.9124 45.2351 24.8076 43.6685 26.5309C42.1242 28.2542 41.7885 29.3397 42.6614 29.7873C47.8089 31.5106 50.6064 33.9165 51.0541 37.005C51.5017 40.0711 51.4009 42.6113 50.7519 44.6256C49.4762 48.1617 47.3165 51.1719 44.2728 53.6561C41.2514 56.1403 36.6186 58.3896 30.3744 60.4038C24.8017 60.8738 19.6877 58.9043 15.0326 54.4954C7.93796 59.8667 3.88709 62.2614 2.87996 61.6795C1.82808 61.6795 1.20142 60.6948 1 58.7253C1 57.5167 4.2228 53.2309 10.6684 45.8677C8.72128 39.5116 8.28486 33.301 9.35913 27.2359C9.58293 24.2145 21.0082 22.1779 43.6349 21.126C44.933 20.0965 45.9065 19.246 46.5556 18.5746ZM20.9075 26.0609L16.7447 26.833C13.7681 27.4373 12.1679 29.0151 11.9441 31.5665L11.9776 36.535C12.2238 39.5116 12.5819 41.6266 13.0519 42.8799C25.0031 36.121 32.2208 31.9246 34.7051 30.2908C37.2117 28.657 39.3043 26.6988 40.9828 24.4159L31.7173 24.6509L20.9075 26.0609ZM16.879 51.7761L19.1954 53.9247C22.1272 56.4313 25.5514 57.6734 29.468 57.651C39.875 54.3163 46.0184 49.4933 47.8984 43.182L48.0327 41.1342C47.9655 36.7476 46.0072 34.0396 42.1578 33.0101C37.1446 33.2786 30.7997 37.6428 23.1232 46.1027C21.5789 47.4231 19.4975 49.3143 16.879 51.7761ZM14.059 46.1027L15.8047 49.7619L24.9695 40.6306C26.9838 38.594 26.2117 38.5269 22.6532 40.4292C17.9756 42.8911 15.1109 44.7822 14.059 46.1027ZM5.3642 55.7375C4.15565 57.2594 3.78638 58.1098 4.25637 58.2889C4.72636 58.4679 5.5992 58.1434 6.87489 57.3153C8.15058 56.4872 10.3215 54.8423 13.3876 52.3804L11.8098 49.0905C10.2432 49.7171 8.09463 51.9328 5.3642 55.7375ZM59.3125 45.6327C61.2148 44.8046 63.0836 44.5472 64.9188 44.8606C66.754 45.1515 67.6828 46.3824 67.7052 48.5533C67.7052 51.6195 61.7296 53.8016 49.7784 55.0996C47.2717 55.8158 46.0408 56.6887 46.0856 57.7182C46.1527 58.7477 46.6115 59.3743 47.462 59.5981C48.3348 59.7996 49.2524 59.945 50.2148 60.0346C51.1995 60.1017 54.8811 59.5086 61.2596 58.2553C67.638 56.9796 70.7825 56.5432 70.693 56.946C70.6258 57.3265 67.6045 58.2889 61.6289 59.8331C55.6756 61.355 50.7967 61.9705 46.992 61.6795C44.4406 60.9633 43.4223 59.5198 43.937 57.3489L44.2056 55.8382H41.9564C41.7773 55.3011 42.1578 54.8087 43.0978 54.3611C44.0601 53.8911 49.465 50.9816 59.3125 45.6327ZM55.3847 49.9969C48.4243 52.9735 48.76 53.7344 56.3918 52.2797C62.5465 50.7578 65.6238 49.4486 65.6238 48.3519C65.6238 47.2553 64.2809 46.8524 61.5953 47.1434L55.3847 49.9969ZM127.092 1.62137C128.412 0.793292 129.934 1.54304 131.658 3.87061C132.15 5.05678 131.893 5.56034 130.885 5.3813L127.864 3.87061L99.6981 33.2786L86.0012 47.6134C90.0521 47.6134 92.1111 48.2176 92.1783 49.4262C92.4245 50.1871 92.1671 51.004 91.4061 51.8768C90.6452 52.7497 89.8619 53.5442 89.0562 54.2604C88.2505 54.9766 87.7357 55.5249 87.5119 55.9053C95.9718 52.9064 99.2729 52.4028 97.4153 54.3947C89.6045 57.7965 85.1396 59.6765 84.0206 60.0346C82.9239 60.3926 81.8832 60.5941 80.8985 60.6388C79.9361 60.6836 79.6004 60.1129 79.8914 58.9267C87.5455 52.9511 89.8283 50.1871 86.7398 50.6347C81.5699 50.6347 76.6014 53.2309 71.8344 58.4232C67.0673 63.6154 63.9117 66.8942 62.3674 68.2594C60.8231 69.6022 55.6085 73.4964 46.7234 79.942C42.7844 82.5606 38.7671 84.5188 34.6715 85.8169C30.5535 87.1374 27.5657 87.9431 25.7081 88.234C23.8281 88.5473 22.1272 88.5921 20.6053 88.3683C19.0611 88.1669 17.9644 87.3724 17.3154 85.9848C16.6664 84.5972 16.8678 82.9075 17.9197 80.9156C18.9492 78.9237 20.583 77.1221 22.821 75.5107C33.407 67.6999 45.582 60.9186 59.346 55.1668L62.7031 53.9582C76.1762 50.8473 84.1325 47.0986 86.5719 42.712L87.3105 41.8056C96.3299 33.0324 106.681 22.4353 118.363 10.0141L127.092 1.62137ZM21.9817 84.9441C22.2727 85.526 23.5931 85.6714 25.9431 85.3805L33.5301 83.1313C42.0571 80.4904 50.696 75.1638 59.4467 67.1516C68.1752 59.1393 72.3827 54.9877 72.0694 54.6968C71.756 54.3835 71.3196 54.2828 70.7601 54.3947C61.8303 55.4465 50.1588 60.7283 35.7458 70.2401C28.9197 73.9329 24.3541 77.8942 22.0489 82.1241C21.6908 83.4222 21.6684 84.3622 21.9817 84.9441ZM114.503 45.6327C116.405 44.8046 118.274 44.5472 120.109 44.8606C121.944 45.1515 122.873 46.3824 122.896 48.5533C122.896 51.6195 116.92 53.8016 104.969 55.0996C102.462 55.8158 101.231 56.6887 101.276 57.7182C101.343 58.7477 101.802 59.3743 102.652 59.5981C103.525 59.7996 104.443 59.945 105.405 60.0346C106.39 60.1017 110.072 59.5086 116.45 58.2553C122.828 56.9796 125.973 56.5432 125.883 56.946C125.816 57.3265 122.795 58.2889 116.819 59.8331C110.866 61.355 105.987 61.9705 102.182 61.6795C99.631 60.9633 98.6127 59.5198 99.1274 57.3489L99.396 55.8382H97.1468C96.9677 55.3011 97.3482 54.8087 98.2882 54.3611C99.2505 53.8911 104.655 50.9816 114.503 45.6327ZM110.575 49.9969C103.615 52.9735 103.95 53.7344 111.582 52.2797C117.737 50.7578 120.814 49.4486 120.814 48.3519C120.814 47.2553 119.471 46.8524 116.786 47.1434L110.575 49.9969ZM135.82 44.6927C138.103 44.536 139.603 44.8494 140.319 45.6327C141.057 46.3936 141.427 47.0762 141.427 47.6805C141.449 48.2848 141.326 48.8107 141.057 49.2583C140.789 49.6836 138.159 51.653 133.168 55.1668C131.646 56.5991 131.098 57.5056 131.523 57.886C131.948 58.2441 132.877 58.3112 134.31 58.0874C138.428 56.4984 145.847 54.7416 156.567 52.8168C158.268 52.8168 159.118 53.0518 159.118 53.5218C159.118 53.9918 153.188 55.4689 141.326 57.9532C133.448 60.7507 129.073 61.8474 128.2 61.2431C127.349 60.6164 127.148 59.6765 127.595 58.4232C127.886 57.237 130.259 55.0549 134.712 51.8768L137.331 49.3255C138.181 47.826 138.081 47.065 137.029 47.0427C135.977 47.0203 134.466 47.3896 132.497 48.1505C130.527 48.889 129.33 49.8402 128.905 51.004C128.479 52.1454 127.808 52.6825 126.89 52.6154C125.973 52.5259 125.525 51.6642 125.548 50.0305C130.136 46.6062 133.56 44.827 135.82 44.6927Z" fill="#F4A85C"/>
<path d="M46.5556 18.5746L46.179 18.2102L46.1788 18.2104L46.5556 18.5746ZM48.6705 19.5817L48.1803 19.3965L48.1768 19.4062L48.6705 19.5817ZM53.2362 20.8574V20.3335H53.2241L53.212 20.334L53.2362 20.8574ZM83.7184 23.1067L84.1552 22.8172L84.0502 22.6588L83.868 22.6045L83.7184 23.1067ZM67.2016 23.9124L67.2578 23.3914L67.2312 23.3886L67.2045 23.3884L67.2016 23.9124ZM55.1161 23.8452L55.119 23.3212L55.1103 23.3213L55.1161 23.8452ZM43.6685 26.5309L43.2808 26.1784L43.2783 26.1812L43.6685 26.5309ZM42.6614 29.7873L42.4223 30.2535L42.4575 30.2716L42.495 30.2841L42.6614 29.7873ZM51.0541 37.005L50.5355 37.0801L50.5356 37.0807L51.0541 37.005ZM50.7519 44.6256L51.2448 44.8034L51.2479 44.7949L51.2506 44.7863L50.7519 44.6256ZM44.2728 53.6561L43.9414 53.2502L43.94 53.2514L44.2728 53.6561ZM30.3744 60.4038L30.4185 60.926L30.4782 60.9209L30.5353 60.9025L30.3744 60.4038ZM15.0326 54.4954L15.3929 54.1149L15.0704 53.8095L14.7163 54.0776L15.0326 54.4954ZM2.87996 61.6795L3.1421 61.2258L3.02045 61.1555H2.87996V61.6795ZM1 58.7253H0.476021V58.752L0.47874 58.7786L1 58.7253ZM10.6684 45.8677L11.0626 46.2128L11.2549 45.9932L11.1694 45.7142L10.6684 45.8677ZM9.35913 27.2359L9.87508 27.3273L9.87971 27.3011L9.88168 27.2746L9.35913 27.2359ZM43.6349 21.126L43.6592 21.6494L43.8281 21.6416L43.9605 21.5365L43.6349 21.126ZM20.9075 26.0609L20.8397 25.5413L20.8258 25.5432L20.8119 25.5457L20.9075 26.0609ZM16.7447 26.833L16.6491 26.3178L16.6405 26.3195L16.7447 26.833ZM11.9441 31.5665L11.4221 31.5207L11.4199 31.5453L11.4201 31.5701L11.9441 31.5665ZM11.9776 36.535L11.4537 36.5385L11.4538 36.5584L11.4555 36.5782L11.9776 36.535ZM13.0519 42.8799L12.5613 43.0639L12.7765 43.6376L13.3099 43.336L13.0519 42.8799ZM34.7051 30.2908L34.419 29.8519L34.4172 29.853L34.7051 30.2908ZM40.9828 24.4159L41.405 24.7263L42.0383 23.865L40.9695 23.8921L40.9828 24.4159ZM31.7173 24.6509L31.704 24.1271L31.6766 24.1278L31.6495 24.1314L31.7173 24.6509ZM16.879 51.7761L16.5201 51.3944L16.1113 51.7787L16.5227 52.1603L16.879 51.7761ZM19.1954 53.9247L18.839 54.3088L18.8468 54.316L18.8549 54.3229L19.1954 53.9247ZM29.468 57.651L29.471 58.175L29.5514 58.1745L29.6279 58.15L29.468 57.651ZM47.8984 43.182L48.4006 43.3316L48.4174 43.2751L48.4213 43.2163L47.8984 43.182ZM48.0327 41.1342L48.5555 41.1685L48.5569 41.1473L48.5566 41.1262L48.0327 41.1342ZM42.1578 33.0101L42.2932 32.5039L42.2128 32.4824L42.1298 32.4868L42.1578 33.0101ZM23.1232 46.1027L23.4637 46.5009L23.4889 46.4794L23.5112 46.4548L23.1232 46.1027ZM14.059 46.1027L13.6492 45.7762L13.445 46.0325L13.5861 46.3283L14.059 46.1027ZM15.8047 49.7619L15.3318 49.9875L15.6504 50.6553L16.1745 50.1331L15.8047 49.7619ZM24.9695 40.6306L25.3394 41.0018L25.3421 40.9991L24.9695 40.6306ZM22.6532 40.4292L22.8972 40.8929L22.9002 40.8913L22.6532 40.4292ZM5.3642 55.7375L5.77454 56.0633L5.78247 56.0534L5.7899 56.043L5.3642 55.7375ZM6.87489 57.3153L6.5896 56.8758L6.87489 57.3153ZM13.3876 52.3804L13.7157 52.789L14.0399 52.5287L13.8601 52.1538L13.3876 52.3804ZM11.8098 49.0905L12.2822 48.8639L12.0703 48.4219L11.6152 48.604L11.8098 49.0905ZM46.5556 18.5746L46.9321 18.939C47.5608 18.2894 47.9755 18.2162 48.2423 18.3015L48.402 17.8025L48.5617 17.3034C47.7094 17.0307 46.8932 17.4723 46.179 18.2102L46.5556 18.5746ZM48.402 17.8025L48.2423 18.3015C48.3038 18.3212 48.3247 18.3425 48.3324 18.3516C48.3405 18.3612 48.3599 18.3887 48.3706 18.4598C48.3951 18.6222 48.3605 18.9198 48.1804 19.3966L48.6705 19.5817L49.1607 19.7669C49.3611 19.2366 49.4719 18.7341 49.4068 18.3034C49.3728 18.0779 49.2887 17.8606 49.1346 17.6773C48.98 17.4933 48.7799 17.3733 48.5617 17.3034L48.402 17.8025ZM48.6705 19.5817L48.1768 19.4062C48.0375 19.798 48.067 20.2128 48.3478 20.5584C48.5951 20.8628 48.9839 21.0437 49.4024 21.1607C50.2497 21.3974 51.5527 21.4595 53.2603 21.3809L53.2362 20.8574L53.212 20.334C51.5177 20.412 50.3589 20.3398 49.6844 20.1514C49.3419 20.0557 49.2048 19.9513 49.1611 19.8976C49.151 19.8851 49.1245 19.869 49.1642 19.7573L48.6705 19.5817ZM53.2362 20.8574V21.3814H60.0846V20.8574V20.3335H53.2362V20.8574ZM60.0846 20.8574V21.3814C70.7954 21.3814 78.6097 22.1321 83.5689 23.6089L83.7184 23.1067L83.868 22.6045C78.7559 21.0822 70.8143 20.3335 60.0846 20.3335V20.8574ZM83.7184 23.1067L83.2816 23.3961C83.3897 23.5591 83.3555 23.6002 83.3638 23.5735C83.3683 23.559 83.3546 23.6286 83.1452 23.7328C82.718 23.9453 81.8615 24.1109 80.4869 24.1779C77.7783 24.3101 73.3765 24.0514 67.2578 23.3914L67.2016 23.9124L67.1454 24.4333C73.2689 25.0938 77.741 25.3611 80.538 25.2246C81.9161 25.1574 82.9704 24.9901 83.6119 24.6711C83.9368 24.5095 84.2469 24.2637 84.3647 23.8841C84.4863 23.4923 84.3549 23.1186 84.1552 22.8172L83.7184 23.1067ZM67.2016 23.9124L67.2045 23.3884L55.119 23.3213L55.1161 23.8452L55.1132 24.3692L67.1987 24.4363L67.2016 23.9124ZM55.1161 23.8452L55.1103 23.3213C52.0578 23.3551 49.5454 23.5971 47.5857 24.0569C45.6378 24.5139 44.1693 25.2011 43.2808 26.1784L43.6685 26.5309L44.0562 26.8834C44.7343 26.1374 45.957 25.5154 47.825 25.0771C49.6812 24.6417 52.1093 24.4025 55.1219 24.3692L55.1161 23.8452ZM43.6685 26.5309L43.2783 26.1812C42.4973 27.0527 41.9611 27.8256 41.7579 28.4826C41.6537 28.8195 41.6224 29.1729 41.7388 29.5052C41.8593 29.8491 42.1108 30.0938 42.4223 30.2535L42.6614 29.7873L42.9005 29.321C42.7755 29.2569 42.7416 29.1981 42.7278 29.1587C42.71 29.1078 42.6954 28.9981 42.7591 28.7923C42.8916 28.3639 43.2954 27.7324 44.0587 26.8806L43.6685 26.5309ZM42.6614 29.7873L42.495 30.2841C47.5996 31.9931 50.133 34.3027 50.5355 37.0801L51.0541 37.005L51.5726 36.9298C51.0799 33.5302 48.0182 31.0281 42.8277 29.2904L42.6614 29.7873ZM51.0541 37.005L50.5356 37.0807C50.9766 40.1015 50.8689 42.5539 50.2532 44.4649L50.7519 44.6256L51.2506 44.7863C51.933 42.6687 52.0268 40.0407 51.5725 36.9293L51.0541 37.005ZM50.7519 44.6256L50.259 44.4477C49.017 47.8905 46.9151 50.8231 43.9414 53.2502L44.2728 53.6561L44.6041 54.062C47.7179 51.5206 49.9354 48.4329 51.2448 44.8034L50.7519 44.6256ZM44.2728 53.6561L43.94 53.2514C40.9926 55.6748 36.4317 57.8993 30.2136 59.9052L30.3744 60.4038L30.5353 60.9025C36.8055 58.8799 41.5102 56.6059 44.6055 54.0608L44.2728 53.6561ZM30.3744 60.4038L30.3304 59.8817C24.929 60.3372 19.9572 58.4378 15.3929 54.1149L15.0326 54.4954L14.6723 54.8758C19.4183 59.3708 24.6744 61.4104 30.4185 60.926L30.3744 60.4038ZM15.0326 54.4954L14.7163 54.0776C11.1736 56.7598 8.40612 58.6869 6.40682 59.8688C5.40481 60.4612 4.61543 60.8545 4.02922 61.0646C3.73575 61.1698 3.51311 61.2217 3.35243 61.2364C3.18605 61.2517 3.1366 61.2226 3.1421 61.2258L2.87996 61.6795L2.61783 62.1332C2.87511 62.2819 3.17255 62.3053 3.4482 62.28C3.72952 62.2542 4.04402 62.1725 4.3828 62.0511C5.06109 61.808 5.91668 61.376 6.94011 60.771C8.99168 59.5582 11.797 57.6022 15.3489 54.9131L15.0326 54.4954ZM2.87996 61.6795V61.1555C2.55531 61.1555 2.29279 61.0206 2.06312 60.6597C1.81405 60.2683 1.61871 59.6248 1.52126 58.672L1 58.7253L0.47874 58.7786C0.582719 59.7953 0.80141 60.6289 1.179 61.2223C1.57599 61.8461 2.15273 62.2035 2.87996 62.2035V61.6795ZM1 58.7253H1.52398C1.52398 58.6752 1.54461 58.5507 1.63633 58.3255C1.72419 58.1098 1.86199 57.8382 2.05624 57.507C2.44449 56.8451 3.03528 55.9841 3.83589 54.9194C5.43559 52.792 7.84267 49.8912 11.0626 46.2128L10.6684 45.8677L10.2741 45.5225C7.04851 49.2074 4.6214 52.1311 2.99831 54.2896C2.18752 55.3678 1.56976 56.2651 1.15231 56.9768C0.943707 57.3324 0.779367 57.6514 0.665806 57.9302C0.556105 58.1995 0.476021 58.4732 0.476021 58.7253H1ZM10.6684 45.8677L11.1694 45.7142C9.2446 39.431 8.8164 33.3044 9.87508 27.3273L9.35913 27.2359L8.84318 27.1445C7.75332 33.2976 8.19796 39.5922 10.1674 46.0212L10.6684 45.8677ZM9.35913 27.2359L9.88168 27.2746C9.89674 27.0712 10.0072 26.8244 10.3224 26.5351C10.6407 26.243 11.1354 25.9393 11.8359 25.6351C13.2358 25.0273 15.3445 24.4651 18.1879 23.9582C23.866 22.9461 32.3515 22.1751 43.6592 21.6494L43.6349 21.126L43.6106 20.6026C32.2916 21.1288 23.7511 21.9021 18.004 22.9265C15.1347 23.438 12.931 24.0172 11.4186 24.6739C10.663 25.0019 10.0516 25.3613 9.61385 25.763C9.17305 26.1675 8.87746 26.6452 8.83658 27.1972L9.35913 27.2359ZM43.6349 21.126L43.9605 21.5365C45.2651 20.5019 46.2595 19.6348 46.9323 18.9388L46.5556 18.5746L46.1788 18.2104C45.5535 18.8573 44.6008 19.6911 43.3093 20.7155L43.6349 21.126ZM20.9075 26.0609L20.8119 25.5457L16.6491 26.3178L16.7447 26.833L16.8403 27.3482L21.003 26.5761L20.9075 26.0609ZM16.7447 26.833L16.6405 26.3195C15.0866 26.635 13.838 27.2152 12.9442 28.0965C12.0432 28.9849 11.5433 30.1395 11.4221 31.5207L11.9441 31.5665L12.4661 31.6123C12.5687 30.4422 12.9808 29.5321 13.68 28.8427C14.3864 28.1462 15.4262 27.6354 16.8489 27.3465L16.7447 26.833ZM11.9441 31.5665L11.4201 31.5701L11.4537 36.5385L11.9776 36.535L12.5016 36.5315L12.468 31.563L11.9441 31.5665ZM11.9776 36.535L11.4555 36.5782C11.702 39.5587 12.0637 41.737 12.5613 43.0639L13.0519 42.8799L13.5425 42.6959C13.1001 41.5161 12.7457 39.4645 12.4998 36.4918L11.9776 36.535ZM13.0519 42.8799L13.3099 43.336C25.2539 36.5811 32.4904 32.3745 34.993 30.7286L34.7051 30.2908L34.4172 29.853C31.9513 31.4748 24.7523 35.6608 12.794 42.4238L13.0519 42.8799ZM34.7051 30.2908L34.9912 30.7298C37.5475 29.0636 39.6871 27.0626 41.405 24.7263L40.9828 24.4159L40.5607 24.1055C38.9214 26.3349 36.8759 28.2505 34.419 29.8519L34.7051 30.2908ZM40.9828 24.4159L40.9695 23.8921L31.704 24.1271L31.7173 24.6509L31.7306 25.1747L40.9961 24.9398L40.9828 24.4159ZM31.7173 24.6509L31.6495 24.1314L20.8397 25.5413L20.9075 26.0609L20.9753 26.5805L31.785 25.1705L31.7173 24.6509ZM16.879 51.7761L16.5227 52.1603L18.839 54.3088L19.1954 53.9247L19.5517 53.5405L17.2353 51.392L16.879 51.7761ZM19.1954 53.9247L18.8549 54.3229C21.884 56.9127 25.4307 58.1981 29.471 58.175L29.468 57.651L29.465 57.1271C25.6722 57.1487 22.3704 55.9498 19.5359 53.5264L19.1954 53.9247ZM29.468 57.651L29.6279 58.15C40.09 54.7977 46.4456 49.8949 48.4006 43.3316L47.8984 43.182L47.3962 43.0324C45.5913 49.0918 39.66 53.835 29.3081 57.152L29.468 57.651ZM47.8984 43.182L48.4213 43.2163L48.5555 41.1685L48.0327 41.1342L47.5098 41.0999L47.3755 43.1477L47.8984 43.182ZM48.0327 41.1342L48.5566 41.1262C48.5219 38.8587 47.9974 36.9709 46.9382 35.5062C45.8755 34.0366 44.311 33.0435 42.2932 32.5039L42.1578 33.0101L42.0224 33.5163C43.854 34.0061 45.1934 34.8818 46.089 36.1203C46.9881 37.3636 47.4763 39.0231 47.5088 41.1422L48.0327 41.1342ZM42.1578 33.0101L42.1298 32.4868C39.4884 32.6283 36.555 33.8431 33.3423 36.0529C30.1247 38.2661 26.5888 41.5036 22.7351 45.7506L23.1232 46.1027L23.5112 46.4548C27.334 42.2419 30.8089 39.0674 33.9361 36.9164C37.0682 34.762 39.814 33.6604 42.1858 33.5333L42.1578 33.0101ZM23.1232 46.1027L22.7826 45.7044C21.2291 47.0328 19.1408 48.9305 16.5201 51.3944L16.879 51.7761L17.2379 52.1579C19.8542 49.6981 21.9287 47.8135 23.4637 46.5009L23.1232 46.1027ZM14.059 46.1027L13.5861 46.3283L15.3318 49.9875L15.8047 49.7619L16.2776 49.5363L14.532 45.8771L14.059 46.1027ZM15.8047 49.7619L16.1745 50.1331L25.3394 41.0018L24.9695 40.6306L24.5997 40.2594L15.4349 49.3907L15.8047 49.7619ZM24.9695 40.6306L25.3421 40.9991C25.8464 40.4892 26.2176 40.063 26.409 39.7388C26.459 39.6542 26.5054 39.5622 26.5379 39.4663C26.5689 39.3748 26.599 39.2455 26.5793 39.1002C26.5572 38.936 26.4738 38.7773 26.3247 38.6671C26.1922 38.5691 26.0486 38.5397 25.9465 38.5308C25.7496 38.5137 25.5325 38.5595 25.3353 38.6166C25.1241 38.6778 24.876 38.7703 24.5951 38.8893C24.0327 39.1276 23.3013 39.4885 22.4061 39.9671L22.6532 40.4292L22.9002 40.8913C23.7842 40.4187 24.4838 40.0746 25.004 39.8542C25.2646 39.7438 25.4707 39.6684 25.6267 39.6233C25.7966 39.5741 25.8596 39.5751 25.8557 39.5748C25.8502 39.5743 25.7813 39.5686 25.7018 39.5098C25.6057 39.4388 25.5535 39.3347 25.5408 39.2404C25.5306 39.165 25.5484 39.121 25.5453 39.1303C25.5436 39.1351 25.5342 39.1592 25.5066 39.206C25.3875 39.4078 25.0998 39.7538 24.597 40.2622L24.9695 40.6306ZM22.6532 40.4292L22.4091 39.9655C20.0623 41.2007 18.1601 42.2979 16.7078 43.2567C15.2668 44.208 14.2292 45.0481 13.6492 45.7762L14.059 46.1027L14.4689 46.4292C14.9408 45.8368 15.8615 45.0711 17.2852 44.1313C18.6976 43.1988 20.5665 42.1196 22.8972 40.8929L22.6532 40.4292ZM5.3642 55.7375L4.95387 55.4116C4.34513 56.1782 3.9138 56.8161 3.70021 57.308C3.59649 57.5469 3.51406 57.8172 3.53975 58.0797C3.55357 58.221 3.59994 58.3709 3.70028 58.5046C3.80122 58.6392 3.93362 58.7266 4.06983 58.7785L4.25637 58.2889L4.4429 57.7992C4.46162 57.8063 4.50274 57.828 4.53864 57.8759C4.57394 57.9229 4.58149 57.9651 4.58273 57.9777C4.58323 57.9829 4.58053 57.9118 4.66146 57.7254C4.81714 57.3669 5.17472 56.8187 5.77454 56.0633L5.3642 55.7375ZM4.25637 58.2889L4.06983 58.7785C4.48994 58.9386 4.9803 58.8441 5.44609 58.6709C5.93391 58.4895 6.50762 58.1784 7.16018 57.7548L6.87489 57.3153L6.5896 56.8758C5.96647 57.2803 5.46592 57.5455 5.08089 57.6886C4.67384 57.84 4.49279 57.8182 4.4429 57.7992L4.25637 58.2889ZM6.87489 57.3153L7.16018 57.7548C8.46082 56.9105 10.6507 55.2499 13.7157 52.789L13.3876 52.3804L13.0596 51.9718C9.99231 54.4346 7.84033 56.0639 6.5896 56.8758L6.87489 57.3153ZM13.3876 52.3804L13.8601 52.1538L12.2822 48.8639L11.8098 49.0905L11.3373 49.3171L12.9152 52.607L13.3876 52.3804ZM11.8098 49.0905L11.6152 48.604C10.7281 48.9588 9.73724 49.7334 8.64725 50.8575C7.5484 51.9906 6.3119 53.5182 4.9385 55.432L5.3642 55.7375L5.7899 56.043C7.14693 54.1521 8.34991 52.6695 9.39958 51.587C10.4581 50.4954 11.3248 49.8488 12.0044 49.577L11.8098 49.0905ZM59.3125 45.6327L59.1033 45.1522L59.0824 45.1614L59.0624 45.1722L59.3125 45.6327ZM64.9188 44.8606L64.8306 45.3771L64.8367 45.3781L64.9188 44.8606ZM67.7052 48.5533H68.2292L68.2291 48.5479L67.7052 48.5533ZM49.7784 55.0996L49.7218 54.5787L49.6774 54.5836L49.6344 54.5958L49.7784 55.0996ZM46.0856 57.7182L45.562 57.7409L45.5627 57.7523L46.0856 57.7182ZM47.462 59.5981L47.3286 60.1049L47.3364 60.1069L47.3442 60.1087L47.462 59.5981ZM50.2148 60.0346L50.1662 60.5564L50.1791 60.5573L50.2148 60.0346ZM61.2596 58.2553L61.3606 58.7694L61.3623 58.7691L61.2596 58.2553ZM70.693 56.946L70.1815 56.8324L70.179 56.8436L70.177 56.855L70.693 56.946ZM61.6289 59.8331L61.7586 60.3408L61.76 60.3404L61.6289 59.8331ZM46.992 61.6795L46.8504 62.184L46.9003 62.198L46.952 62.202L46.992 61.6795ZM43.937 57.3489L44.4469 57.4698L44.4503 57.4553L44.4529 57.4406L43.937 57.3489ZM44.2056 55.8382L44.7215 55.9299L44.831 55.3142H44.2056V55.8382ZM41.9564 55.8382L41.4593 56.0039L41.5787 56.3622H41.9564V55.8382ZM43.0978 54.3611L43.3231 54.8342L43.3277 54.8319L43.0978 54.3611ZM55.3847 49.9969L55.5908 50.4788L55.6034 50.473L55.3847 49.9969ZM56.3918 52.2797L56.4899 52.7944L56.5038 52.7918L56.5176 52.7884L56.3918 52.2797ZM61.5953 47.1434L61.5388 46.6224L61.454 46.6316L61.3765 46.6672L61.5953 47.1434ZM59.3125 45.6327L59.5216 46.1131C61.3415 45.3209 63.1072 45.0828 64.8306 45.3771L64.9188 44.8606L65.007 44.344C63.06 44.0116 61.0881 44.2883 59.1033 45.1522L59.3125 45.6327ZM64.9188 44.8606L64.8367 45.3781C65.6496 45.5069 66.2071 45.8319 66.5735 46.3176C66.9478 46.8137 67.1707 47.5409 67.1812 48.5587L67.7052 48.5533L68.2291 48.5479C68.2172 47.3949 67.9645 46.4212 67.4101 45.6864C66.8477 44.9411 66.0232 44.5051 65.0008 44.343L64.9188 44.8606ZM67.7052 48.5533H67.1812C67.1812 49.1272 66.9085 49.7055 66.239 50.2935C65.5612 50.8888 64.5088 51.4623 63.0437 51.9973C60.1166 53.0662 55.6855 53.931 49.7218 54.5787L49.7784 55.0996L49.8349 55.6206C55.8224 54.9702 60.3547 54.0949 63.4032 52.9817C64.9259 52.4257 66.1144 51.7977 66.9305 51.0809C67.7549 50.3568 68.2291 49.5125 68.2291 48.5533H67.7052ZM49.7784 55.0996L49.6344 54.5958C48.3593 54.9601 47.3587 55.3771 46.6721 55.864C45.984 56.3519 45.5288 56.9749 45.5621 57.7409L46.0856 57.7182L46.6091 57.6954C46.5976 57.4319 46.7355 57.1037 47.2783 56.7188C47.8226 56.3329 48.6908 55.9553 49.9223 55.6035L49.7784 55.0996ZM46.0856 57.7182L45.5627 57.7523C45.6007 58.3346 45.7526 58.8537 46.0573 59.2698C46.367 59.6929 46.8034 59.9666 47.3286 60.1049L47.462 59.5981L47.5953 59.0914C47.2701 59.0058 47.0519 58.8543 46.9028 58.6508C46.7487 58.4402 46.6376 58.1313 46.6084 57.6841L46.0856 57.7182ZM47.462 59.5981L47.3442 60.1087C48.2415 60.3158 49.1824 60.4648 50.1662 60.5563L50.2148 60.0346L50.2633 59.5128C49.3225 59.4253 48.4281 59.2833 47.5798 59.0876L47.462 59.5981ZM50.2148 60.0346L50.1791 60.5573C50.4773 60.5776 50.934 60.5476 51.5177 60.4818C52.1125 60.4148 52.8734 60.3063 53.7979 60.1574C55.6474 59.8595 58.1691 59.3965 61.3606 58.7694L61.2596 58.2553L61.1585 57.7412C57.9716 58.3674 55.4633 58.8276 53.6312 59.1228C52.7148 59.2704 51.972 59.376 51.4003 59.4404C50.8174 59.5061 50.4446 59.525 50.2504 59.5118L50.2148 60.0346ZM61.2596 58.2553L61.3623 58.7691C64.5496 58.1317 66.9177 57.7062 68.4738 57.4902C69.2561 57.3816 69.8126 57.329 70.1595 57.3252C70.2444 57.3243 70.311 57.3264 70.3613 57.3303C70.3861 57.3323 70.4051 57.3345 70.419 57.3367C70.4332 57.3388 70.4393 57.3404 70.4391 57.3404C70.4388 57.3403 70.4359 57.3395 70.4311 57.3378C70.4262 57.3361 70.4183 57.333 70.4081 57.3282C70.3894 57.3193 70.3522 57.2993 70.3116 57.2609C70.2057 57.1606 70.1447 56.9978 70.1815 56.8324L70.693 56.946L71.2045 57.0597C71.2524 56.8439 71.1774 56.6374 71.0321 56.4998C70.9189 56.3927 70.7873 56.3488 70.7108 56.3283C70.5481 56.2846 70.3476 56.2751 70.148 56.2773C69.7311 56.2819 69.1197 56.3426 68.3297 56.4522C66.7413 56.6727 64.348 57.1033 61.1568 57.7415L61.2596 58.2553ZM70.693 56.946L70.177 56.855C70.199 56.7302 70.2646 56.6646 70.2683 56.6607C70.2788 56.6498 70.2756 56.6559 70.2429 56.6772C70.1784 56.7193 70.0626 56.7805 69.8798 56.86C69.5185 57.017 68.9679 57.2149 68.2176 57.4539C66.7211 57.9306 64.4832 58.5543 61.4977 59.3258L61.6289 59.8331L61.76 60.3404C64.7501 59.5677 67.0107 58.9381 68.5356 58.4524C69.2959 58.2103 69.8868 57.9996 70.2976 57.821C70.5008 57.7327 70.6787 57.6442 70.8157 57.5548C70.8837 57.5104 70.9581 57.4552 71.0232 57.3876C71.0815 57.3271 71.1786 57.2095 71.209 57.0371L70.693 56.946ZM61.6289 59.8331L61.4991 59.3255C55.5718 60.8407 50.7556 61.4418 47.0319 61.1571L46.992 61.6795L46.952 62.202C50.8377 62.4991 55.7795 61.8693 61.7586 60.3408L61.6289 59.8331ZM46.992 61.6795L47.1336 61.175C45.9182 60.8339 45.1554 60.3424 44.7429 59.7577C44.3421 59.1895 44.2144 58.4503 44.4469 57.4698L43.937 57.3489L43.4272 57.228C43.145 58.4183 43.269 59.4864 43.8865 60.3618C44.4924 61.2206 45.5144 61.809 46.8504 62.184L46.992 61.6795ZM43.937 57.3489L44.4529 57.4406L44.7215 55.9299L44.2056 55.8382L43.6897 55.7465L43.4212 57.2572L43.937 57.3489ZM44.2056 55.8382V55.3142H41.9564V55.8382V56.3622H44.2056V55.8382ZM41.9564 55.8382L42.4535 55.6725C42.4253 55.588 42.4261 55.5106 42.5221 55.3865C42.639 55.2351 42.8835 55.0435 43.3231 54.8342L43.0978 54.3611L42.8725 53.888C42.3721 54.1263 41.9563 54.4047 41.6928 54.7457C41.4083 55.1139 41.3084 55.5512 41.4593 56.0039L41.9564 55.8382ZM43.0978 54.3611L43.3277 54.8319C44.3035 54.3554 49.724 51.4373 59.5626 46.0931L59.3125 45.6327L59.0624 45.1722C49.2061 50.526 43.8168 53.4268 42.8678 53.8903L43.0978 54.3611ZM55.3847 49.9969L55.1787 49.5151C53.4346 50.261 52.1289 50.8757 51.275 51.3575C50.8524 51.596 50.5136 51.8165 50.2854 52.0181C50.1736 52.1169 50.0586 52.2367 49.9807 52.377C49.9009 52.5206 49.8246 52.7572 49.9368 53.0115C50.0398 53.2451 50.2434 53.3542 50.3752 53.4053C50.5169 53.4602 50.677 53.4881 50.8341 53.5031C51.1519 53.5336 51.5735 53.5215 52.0815 53.4773C53.1046 53.3882 54.5775 53.1589 56.4899 52.7944L56.3918 52.2797L56.2937 51.765C54.3902 52.1278 52.9593 52.3489 51.9905 52.4333C51.5026 52.4758 51.1562 52.4812 50.9341 52.4599C50.8212 52.4491 50.7684 52.4338 50.7541 52.4282C50.73 52.4189 50.8346 52.4502 50.8956 52.5885C50.9659 52.7478 50.9046 52.8719 50.8969 52.8858C50.891 52.8964 50.905 52.8691 50.9792 52.8035C51.1231 52.6764 51.3844 52.499 51.7899 52.2703C52.5921 51.8177 53.8546 51.2211 55.5907 50.4787L55.3847 49.9969ZM56.3918 52.2797L56.5176 52.7884C59.6026 52.0255 61.9431 51.3098 63.5209 50.6385C64.307 50.3041 64.9322 49.9689 65.3695 49.6271C65.7865 49.301 66.1478 48.878 66.1478 48.3519H65.6238H65.0998C65.0998 48.3741 65.0764 48.526 64.724 48.8015C64.392 49.0611 63.8632 49.354 63.1106 49.6742C61.6112 50.3121 59.3357 51.012 56.266 51.771L56.3918 52.2797ZM65.6238 48.3519H66.1478C66.1478 47.9613 66.0243 47.6024 65.7623 47.31C65.5096 47.0277 65.1606 46.8434 64.7672 46.7254C63.992 46.4928 62.8988 46.4751 61.5388 46.6224L61.5953 47.1434L61.6517 47.6643C62.9775 47.5207 63.8985 47.5589 64.4661 47.7292C64.7441 47.8126 64.8987 47.9165 64.9817 48.0091C65.0554 48.0915 65.0998 48.1942 65.0998 48.3519H65.6238ZM61.5953 47.1434L61.3765 46.6672L55.1659 49.5208L55.3847 49.9969L55.6034 50.473L61.814 47.6195L61.5953 47.1434ZM127.092 1.62137L126.814 1.17746L126.768 1.20619L126.729 1.24367L127.092 1.62137ZM131.658 3.87061L132.141 3.66973L132.117 3.61043L132.079 3.55882L131.658 3.87061ZM130.885 5.3813L130.651 5.84996L130.719 5.88391L130.794 5.89719L130.885 5.3813ZM127.864 3.87061L128.098 3.40195L127.753 3.22919L127.486 3.50818L127.864 3.87061ZM99.6981 33.2786L99.3197 32.9162L99.3193 32.9166L99.6981 33.2786ZM86.0012 47.6134L85.6224 47.2514L84.7759 48.1373H86.0012V47.6134ZM92.1783 49.4262L91.6551 49.4552L91.6589 49.523L91.6797 49.5875L92.1783 49.4262ZM87.5119 55.9053L87.0603 55.6397L86.3307 56.88L87.687 56.3992L87.5119 55.9053ZM97.4153 54.3947L97.6245 54.8751L97.7243 54.8316L97.7985 54.752L97.4153 54.3947ZM84.0206 60.0346L83.8609 59.5355L83.8579 59.5365L84.0206 60.0346ZM80.8985 60.6388L80.8747 60.1154L80.8741 60.1154L80.8985 60.6388ZM79.8914 58.9267L79.5689 58.5137L79.4257 58.6255L79.3825 58.8019L79.8914 58.9267ZM86.7398 50.6347V51.1587H86.7776L86.815 51.1533L86.7398 50.6347ZM62.3674 68.2594L62.7112 68.6548L62.7145 68.652L62.3674 68.2594ZM46.7234 79.942L47.0135 80.3784L47.0224 80.3725L47.0311 80.3662L46.7234 79.942ZM34.6715 85.8169L34.5132 85.3174L34.5115 85.318L34.6715 85.8169ZM25.7081 88.234L25.627 87.7163L25.622 87.7172L25.7081 88.234ZM20.6053 88.3683L20.6816 87.8498L20.6731 87.8487L20.6053 88.3683ZM17.9197 80.9156L18.383 81.1603L18.3852 81.1562L17.9197 80.9156ZM22.821 75.5107L23.1272 75.9359L23.1321 75.9323L22.821 75.5107ZM59.346 55.1668L59.1686 54.6738L59.1562 54.6782L59.144 54.6833L59.346 55.1668ZM62.7031 53.9582L62.5852 53.4477L62.5549 53.4547L62.5256 53.4652L62.7031 53.9582ZM86.5719 42.712L86.1657 42.381L86.1365 42.4169L86.114 42.4574L86.5719 42.712ZM87.3105 41.8056L86.9452 41.43L86.9234 41.4511L86.9043 41.4746L87.3105 41.8056ZM118.363 10.0141L118 9.63637L117.991 9.64549L117.982 9.65508L118.363 10.0141ZM21.9817 84.9441L22.4504 84.7097L22.4469 84.7026L22.4431 84.6957L21.9817 84.9441ZM25.9431 85.3805L26.0075 85.9005L26.0505 85.8952L26.092 85.8829L25.9431 85.3805ZM33.5301 83.1313L33.679 83.6337L33.6851 83.6318L33.5301 83.1313ZM59.4467 67.1516L59.8006 67.538L59.8011 67.5376L59.4467 67.1516ZM72.0694 54.6968L71.6989 55.0673L71.7057 55.0742L71.7128 55.0808L72.0694 54.6968ZM70.7601 54.3947L70.8214 54.915L70.8423 54.9126L70.8629 54.9085L70.7601 54.3947ZM35.7458 70.2401L35.9951 70.7009L36.0152 70.69L36.0344 70.6774L35.7458 70.2401ZM22.0489 82.1241L21.5888 81.8734L21.5599 81.9265L21.5438 81.9848L22.0489 82.1241ZM127.092 1.62137L127.37 2.06528C127.861 1.75762 128.377 1.72956 128.992 2.03266C129.643 2.35318 130.394 3.04443 131.236 4.1824L131.658 3.87061L132.079 3.55882C131.198 2.36922 130.326 1.52181 129.455 1.09259C128.549 0.645938 127.643 0.657043 126.814 1.17746L127.092 1.62137ZM131.658 3.87061L131.174 4.0715C131.287 4.34535 131.346 4.55367 131.367 4.70443C131.389 4.8601 131.364 4.90664 131.367 4.89944C131.382 4.87036 131.407 4.87047 131.37 4.88006C131.314 4.89444 131.193 4.90371 130.977 4.86541L130.885 5.3813L130.794 5.89719C131.082 5.94841 131.37 5.96187 131.63 5.89513C131.909 5.82359 132.157 5.65724 132.3 5.37638C132.433 5.1174 132.442 4.82683 132.405 4.56008C132.367 4.2884 132.274 3.98897 132.141 3.66973L131.658 3.87061ZM130.885 5.3813L131.12 4.91264L128.098 3.40195L127.864 3.87061L127.63 4.33928L130.651 5.84996L130.885 5.3813ZM127.864 3.87061L127.486 3.50818L99.3197 32.9162L99.6981 33.2786L100.077 33.6411L128.242 4.23305L127.864 3.87061ZM99.6981 33.2786L99.3193 32.9166L85.6224 47.2514L86.0012 47.6134L86.3801 47.9753L100.077 33.6406L99.6981 33.2786ZM86.0012 47.6134V48.1373C88.0127 48.1373 89.4798 48.2887 90.4361 48.5693C91.4331 48.8619 91.6417 49.2146 91.6551 49.4552L92.1783 49.4262L92.7014 49.3971C92.6477 48.4292 91.7932 47.8755 90.7312 47.5638C89.6285 47.2402 88.0407 47.0894 86.0012 47.0894V47.6134ZM92.1783 49.4262L91.6797 49.5875C91.8462 50.1019 91.7105 50.7304 91.0112 51.5325L91.4061 51.8768L91.8011 52.2212C92.6236 51.2777 93.0027 50.2723 92.6768 49.2649L92.1783 49.4262ZM91.4061 51.8768L91.0112 51.5325C90.2638 52.3898 89.496 53.1684 88.7081 53.8687L89.0562 54.2604L89.4043 54.652C90.2278 53.92 91.0266 53.1095 91.8011 52.2212L91.4061 51.8768ZM89.0562 54.2604L88.7081 53.8687C87.9036 54.5838 87.3305 55.1803 87.0603 55.6397L87.5119 55.9053L87.9636 56.171C88.141 55.8694 88.5974 55.3693 89.4043 54.652L89.0562 54.2604ZM87.5119 55.9053L87.687 56.3992C91.921 54.8983 94.817 54.0397 96.4117 53.7964C96.8083 53.7359 97.099 53.7177 97.2975 53.7296C97.5254 53.7432 97.5202 53.7903 97.4651 53.7335C97.3485 53.6132 97.4172 53.489 97.3862 53.5638C97.3515 53.6473 97.2512 53.8023 97.0321 54.0373L97.4153 54.3947L97.7985 54.752C98.0438 54.489 98.2467 54.2241 98.354 53.9656C98.465 53.6983 98.5145 53.3102 98.2174 53.0038C97.9818 52.761 97.6349 52.7 97.36 52.6835C97.0557 52.6653 96.6823 52.695 96.2536 52.7604C94.5471 53.0208 91.5627 53.9134 87.3369 55.4115L87.5119 55.9053ZM97.4153 54.3947L97.2061 53.9143C89.3776 57.3238 84.9472 59.1879 83.8609 59.5355L84.0206 60.0346L84.1803 60.5336C85.332 60.1651 89.8314 58.2692 97.6245 54.8751L97.4153 54.3947ZM84.0206 60.0346L83.8579 59.5365C82.7988 59.8823 81.805 60.0731 80.8747 60.1154L80.8985 60.6388L80.9223 61.1623C81.9615 61.115 83.0491 60.903 84.1832 60.5326L84.0206 60.0346ZM80.8985 60.6388L80.8741 60.1154C80.4882 60.1334 80.4041 60.0256 80.3766 59.9787C80.317 59.8774 80.2626 59.6127 80.4003 59.0515L79.8914 58.9267L79.3825 58.8019C79.2292 59.4269 79.1971 60.0406 79.4733 60.51C79.7814 61.0339 80.3464 61.189 80.9228 61.1622L80.8985 60.6388ZM79.8914 58.9267L80.2138 59.3397C84.0366 56.3553 86.5651 54.138 87.7481 52.7057C88.0455 52.3456 88.277 52.0127 88.4209 51.7125C88.5557 51.4313 88.6641 51.0746 88.544 50.7291C88.4078 50.3375 88.0602 50.167 87.7507 50.104C87.4449 50.0417 87.0726 50.0571 86.6646 50.1162L86.7398 50.6347L86.815 51.1533C87.1792 51.1005 87.4111 51.1043 87.5417 51.1309C87.6686 51.1567 87.5896 51.1753 87.5542 51.0733C87.5347 51.0173 87.576 51.0506 87.4758 51.2596C87.3847 51.4497 87.2134 51.7074 86.9401 52.0383C85.8402 53.37 83.4003 55.5226 79.5689 58.5137L79.8914 58.9267ZM86.7398 50.6347V50.1107C81.3757 50.1107 76.2772 52.8092 71.4484 58.0688L71.8344 58.4232L72.2203 58.7775C76.9256 53.6525 81.7641 51.1587 86.7398 51.1587V50.6347ZM71.8344 58.4232L71.4484 58.0688C66.6765 63.2664 63.5401 66.5233 62.0204 67.8668L62.3674 68.2594L62.7145 68.652C64.2832 67.2651 67.4582 63.9645 72.2203 58.7775L71.8344 58.4232ZM62.3674 68.2594L62.0236 67.864C60.5014 69.1876 55.3113 73.0647 46.4157 79.5179L46.7234 79.942L47.0311 80.3662C55.9057 73.9282 61.1449 70.0168 62.7112 68.6548L62.3674 68.2594ZM46.7234 79.942L46.4333 79.5057C42.5311 82.0998 38.5577 84.0356 34.5132 85.3174L34.6715 85.8169L34.8298 86.3164C38.9765 85.0021 43.0378 83.0213 47.0135 80.3784L46.7234 79.942ZM34.6715 85.8169L34.5115 85.318C30.3949 86.638 27.4409 87.4323 25.627 87.7163L25.7081 88.234L25.7892 88.7517C27.6905 88.4539 30.7121 87.6368 34.8315 86.3159L34.6715 85.8169ZM25.7081 88.234L25.622 87.7172C23.7834 88.0236 22.1385 88.0641 20.6816 87.8499L20.6053 88.3683L20.5291 88.8867C22.1159 89.1201 23.8729 89.0711 25.7942 88.7509L25.7081 88.234ZM20.6053 88.3683L20.6731 87.8487C19.3028 87.67 18.3617 86.9849 17.79 85.7628L17.3154 85.9848L16.8408 86.2068C17.5672 87.7598 18.8193 88.6638 20.5376 88.8879L20.6053 88.3683ZM17.3154 85.9848L17.79 85.7628C17.2388 84.5843 17.3702 83.0782 18.383 81.1603L17.9197 80.9156L17.4563 80.6709C16.3654 82.7367 16.0939 84.6101 16.8408 86.2068L17.3154 85.9848ZM17.9197 80.9156L18.3852 81.1562C19.3691 79.2525 20.9409 77.51 23.1272 75.9359L22.821 75.5107L22.5148 75.0855C20.225 76.7341 18.5293 78.595 17.4542 80.675L17.9197 80.9156ZM22.821 75.5107L23.1321 75.9323C33.6802 68.1495 45.8177 61.388 59.5481 55.6502L59.346 55.1668L59.144 54.6833C45.3463 60.4492 33.1338 67.2503 22.5099 75.0891L22.821 75.5107ZM59.346 55.1668L59.5235 55.6598L62.8806 54.4512L62.7031 53.9582L62.5256 53.4652L59.1686 54.6738L59.346 55.1668ZM62.7031 53.9582L62.821 54.4688C69.5758 52.9091 74.9731 51.1841 78.9985 49.2875C83.0097 47.3976 85.7298 45.3044 87.0299 42.9667L86.5719 42.712L86.114 42.4574C84.9746 44.5062 82.4968 46.4807 78.5518 48.3395C74.6209 50.1916 69.3035 51.8965 62.5852 53.4477L62.7031 53.9582ZM86.5719 42.712L86.9782 43.043L87.7167 42.1366L87.3105 41.8056L86.9043 41.4746L86.1657 42.381L86.5719 42.712ZM87.3105 41.8056L87.6759 42.1812C96.7023 33.4011 107.059 22.7981 118.745 10.3731L118.363 10.0141L117.982 9.65508C106.303 22.0725 95.9574 32.6638 86.9452 41.43L87.3105 41.8056ZM118.363 10.0141L118.727 10.3918L127.455 1.99907L127.092 1.62137L126.729 1.24367L118 9.63637L118.363 10.0141ZM21.9817 84.9441L21.5131 85.1784C21.6562 85.4647 21.9054 85.6535 22.1774 85.7762C22.4474 85.8981 22.7727 85.9708 23.1329 86.0104C23.8534 86.0898 24.8183 86.0477 26.0075 85.9005L25.9431 85.3805L25.8787 84.8605C24.718 85.0042 23.8477 85.0349 23.2477 84.9688C22.9476 84.9357 22.7414 84.8811 22.6086 84.8211C22.4777 84.762 22.4527 84.7144 22.4504 84.7097L21.9817 84.9441ZM25.9431 85.3805L26.092 85.8829L33.679 83.6336L33.5301 83.1313L33.3812 82.6289L25.7942 84.8781L25.9431 85.3805ZM33.5301 83.1313L33.6851 83.6318C42.3061 80.9618 51.0107 75.5861 59.8006 67.538L59.4467 67.1516L59.0929 66.7651C50.3813 74.7415 41.8081 80.0189 33.3751 82.6307L33.5301 83.1313ZM59.4467 67.1516L59.8011 67.5376C64.1663 63.5305 67.406 60.4844 69.5167 58.4017C70.5706 57.3618 71.351 56.5544 71.8507 55.9843C72.098 55.7022 72.291 55.462 72.4142 55.2725C72.473 55.1821 72.5362 55.0729 72.5734 54.9588C72.5946 54.8936 72.6952 54.5629 72.4259 54.3128L72.0694 54.6968L71.7128 55.0808C71.6005 54.9765 71.5672 54.849 71.5624 54.7656C71.5581 54.6922 71.5741 54.643 71.5769 54.6344C71.5826 54.6169 71.579 54.6347 71.5357 54.7012C71.4547 54.8257 71.3022 55.0203 71.0627 55.2935C70.5889 55.834 69.8306 56.6198 68.7807 57.6557C66.6839 59.7246 63.4556 62.7604 59.0924 66.7656L59.4467 67.1516ZM72.0694 54.6968L72.4399 54.3263C71.9674 53.8538 71.3332 53.7457 70.6573 53.8809L70.7601 54.3947L70.8629 54.9085C71.306 54.8198 71.5447 54.9131 71.6989 55.0673L72.0694 54.6968ZM70.7601 54.3947L70.6988 53.8743C61.6429 54.941 49.8867 60.2801 35.4572 69.8027L35.7458 70.2401L36.0344 70.6774C50.4309 61.1766 62.0176 55.9521 70.8214 54.915L70.7601 54.3947ZM35.7458 70.2401L35.4964 69.7792C28.6308 73.4934 23.9638 77.5155 21.5888 81.8734L22.0489 82.1241L22.509 82.3749C24.7444 78.273 29.2086 74.3723 35.9951 70.7009L35.7458 70.2401ZM22.0489 82.1241L21.5438 81.9848C21.1816 83.2977 21.1029 84.4171 21.5204 85.1925L21.9817 84.9441L22.4431 84.6957C22.2339 84.3073 22.2 83.5467 22.554 82.2635L22.0489 82.1241ZM114.503 45.6327L114.294 45.1522L114.273 45.1614L114.253 45.1722L114.503 45.6327ZM120.109 44.8606L120.021 45.3771L120.027 45.3781L120.109 44.8606ZM122.896 48.5533H123.42L123.42 48.5479L122.896 48.5533ZM104.969 55.0996L104.912 54.5787L104.868 54.5836L104.825 54.5958L104.969 55.0996ZM101.276 57.7182L100.752 57.7409L100.753 57.7523L101.276 57.7182ZM102.652 59.5981L102.519 60.1049L102.527 60.1069L102.535 60.1087L102.652 59.5981ZM105.405 60.0346L105.357 60.5564L105.37 60.5573L105.405 60.0346ZM116.45 58.2553L116.551 58.7694L116.553 58.7691L116.45 58.2553ZM125.883 56.946L125.372 56.8324L125.369 56.8436L125.367 56.855L125.883 56.946ZM116.819 59.8331L116.949 60.3408L116.95 60.3404L116.819 59.8331ZM102.182 61.6795L102.041 62.184L102.091 62.198L102.142 62.202L102.182 61.6795ZM99.1274 57.3489L99.6373 57.4698L99.6407 57.4553L99.6433 57.4406L99.1274 57.3489ZM99.396 55.8382L99.9119 55.9299L100.021 55.3142H99.396V55.8382ZM97.1468 55.8382L96.6497 56.0039L96.7691 56.3622H97.1468V55.8382ZM98.2882 54.3611L98.5134 54.8342L98.5181 54.8319L98.2882 54.3611ZM110.575 49.9969L110.781 50.4788L110.794 50.473L110.575 49.9969ZM111.582 52.2797L111.68 52.7944L111.694 52.7918L111.708 52.7884L111.582 52.2797ZM116.786 47.1434L116.729 46.6224L116.644 46.6316L116.567 46.6672L116.786 47.1434ZM114.503 45.6327L114.712 46.1131C116.532 45.3209 118.298 45.0828 120.021 45.3771L120.109 44.8606L120.197 44.344C118.25 44.0116 116.278 44.2883 114.294 45.1522L114.503 45.6327ZM120.109 44.8606L120.027 45.3781C120.84 45.5069 121.397 45.8319 121.764 46.3176C122.138 46.8137 122.361 47.5409 122.372 48.5587L122.896 48.5533L123.42 48.5479C123.408 47.3949 123.155 46.4212 122.6 45.6864C122.038 44.9411 121.214 44.5051 120.191 44.343L120.109 44.8606ZM122.896 48.5533H122.372C122.372 49.1272 122.099 49.7055 121.429 50.2935C120.752 50.8888 119.699 51.4623 118.234 51.9973C115.307 53.0662 110.876 53.931 104.912 54.5787L104.969 55.0996L105.025 55.6206C111.013 54.9702 115.545 54.0949 118.594 52.9817C120.116 52.4257 121.305 51.7977 122.121 51.0809C122.945 50.3568 123.42 49.5125 123.42 48.5533H122.896ZM104.969 55.0996L104.825 54.5958C103.55 54.9601 102.549 55.3771 101.863 55.864C101.174 56.3519 100.719 56.9749 100.752 57.7409L101.276 57.7182L101.799 57.6954C101.788 57.4319 101.926 57.1037 102.469 56.7188C103.013 56.3329 103.881 55.9553 105.113 55.6035L104.969 55.0996ZM101.276 57.7182L100.753 57.7523C100.791 58.3346 100.943 58.8537 101.248 59.2698C101.557 59.6929 101.994 59.9666 102.519 60.1049L102.652 59.5981L102.786 59.0914C102.46 59.0058 102.242 58.8543 102.093 58.6508C101.939 58.4402 101.828 58.1313 101.799 57.6841L101.276 57.7182ZM102.652 59.5981L102.535 60.1087C103.432 60.3158 104.373 60.4648 105.357 60.5563L105.405 60.0346L105.454 59.5128C104.513 59.4253 103.618 59.2833 102.77 59.0876L102.652 59.5981ZM105.405 60.0346L105.37 60.5573C105.668 60.5776 106.124 60.5476 106.708 60.4818C107.303 60.4148 108.064 60.3063 108.988 60.1574C110.838 59.8595 113.359 59.3965 116.551 58.7694L116.45 58.2553L116.349 57.7412C113.162 58.3674 110.654 58.8276 108.822 59.1228C107.905 59.2704 107.162 59.376 106.591 59.4404C106.008 59.5061 105.635 59.525 105.441 59.5118L105.405 60.0346ZM116.45 58.2553L116.553 58.7691C119.74 58.1317 122.108 57.7062 123.664 57.4902C124.446 57.3816 125.003 57.329 125.35 57.3252C125.435 57.3243 125.501 57.3264 125.552 57.3303C125.577 57.3323 125.596 57.3345 125.609 57.3367C125.624 57.3388 125.63 57.3404 125.629 57.3404C125.629 57.3403 125.626 57.3395 125.621 57.3378C125.617 57.3361 125.609 57.333 125.598 57.3282C125.58 57.3193 125.543 57.2993 125.502 57.2609C125.396 57.1606 125.335 56.9978 125.372 56.8324L125.883 56.946L126.395 57.0597C126.443 56.8439 126.368 56.6374 126.222 56.4998C126.109 56.3927 125.978 56.3488 125.901 56.3283C125.738 56.2846 125.538 56.2751 125.338 56.2773C124.921 56.2819 124.31 56.3426 123.52 56.4522C121.932 56.6727 119.538 57.1033 116.347 57.7415L116.45 58.2553ZM125.883 56.946L125.367 56.855C125.389 56.7302 125.455 56.6646 125.459 56.6607C125.469 56.6498 125.466 56.6559 125.433 56.6772C125.369 56.7193 125.253 56.7805 125.07 56.86C124.709 57.017 124.158 57.2149 123.408 57.4539C121.911 57.9306 119.674 58.5543 116.688 59.3258L116.819 59.8331L116.95 60.3404C119.941 59.5677 122.201 58.9381 123.726 58.4524C124.486 58.2103 125.077 57.9996 125.488 57.821C125.691 57.7327 125.869 57.6442 126.006 57.5548C126.074 57.5104 126.149 57.4552 126.214 57.3876C126.272 57.3271 126.369 57.2095 126.399 57.0371L125.883 56.946ZM116.819 59.8331L116.689 59.3255C110.762 60.8407 105.946 61.4418 102.222 61.1571L102.182 61.6795L102.142 62.202C106.028 62.4991 110.97 61.8693 116.949 60.3408L116.819 59.8331ZM102.182 61.6795L102.324 61.175C101.109 60.8339 100.346 60.3424 99.9333 59.7577C99.5325 59.1895 99.4048 58.4503 99.6373 57.4698L99.1274 57.3489L98.6176 57.228C98.3353 58.4183 98.4594 59.4864 99.0769 60.3618C99.6828 61.2206 100.705 61.809 102.041 62.184L102.182 61.6795ZM99.1274 57.3489L99.6433 57.4406L99.9119 55.9299L99.396 55.8382L98.8801 55.7465L98.6115 57.2572L99.1274 57.3489ZM99.396 55.8382V55.3142H97.1468V55.8382V56.3622H99.396V55.8382ZM97.1468 55.8382L97.6438 55.6725C97.6157 55.588 97.6165 55.5106 97.7124 55.3865C97.8294 55.2351 98.0739 55.0435 98.5134 54.8342L98.2882 54.3611L98.0629 53.888C97.5625 54.1263 97.1467 54.4047 96.8832 54.7457C96.5987 55.1139 96.4988 55.5512 96.6497 56.0039L97.1468 55.8382ZM98.2882 54.3611L98.5181 54.8319C99.4938 54.3554 104.914 51.4373 114.753 46.0931L114.503 45.6327L114.253 45.1722C104.396 50.526 99.0072 53.4268 98.0582 53.8903L98.2882 54.3611ZM110.575 49.9969L110.369 49.5151C108.625 50.261 107.319 50.8757 106.465 51.3575C106.043 51.596 105.704 51.8165 105.476 52.0181C105.364 52.1169 105.249 52.2367 105.171 52.377C105.091 52.5206 105.015 52.7572 105.127 53.0115C105.23 53.2451 105.434 53.3542 105.566 53.4053C105.707 53.4602 105.867 53.4881 106.024 53.5031C106.342 53.5336 106.764 53.5215 107.272 53.4773C108.295 53.3882 109.768 53.1589 111.68 52.7944L111.582 52.2797L111.484 51.765C109.581 52.1278 108.15 52.3489 107.181 52.4333C106.693 52.4758 106.347 52.4812 106.124 52.4599C106.012 52.4491 105.959 52.4338 105.945 52.4282C105.92 52.4189 106.025 52.4502 106.086 52.5885C106.156 52.7478 106.095 52.8719 106.087 52.8858C106.081 52.8964 106.095 52.8691 106.17 52.8035C106.313 52.6764 106.575 52.499 106.98 52.2703C107.782 51.8177 109.045 51.2211 110.781 50.4787L110.575 49.9969ZM111.582 52.2797L111.708 52.7884C114.793 52.0255 117.133 51.3098 118.711 50.6385C119.497 50.3041 120.123 49.9689 120.56 49.6271C120.977 49.301 121.338 48.878 121.338 48.3519H120.814H120.29C120.29 48.3741 120.267 48.526 119.914 48.8015C119.582 49.0611 119.054 49.354 118.301 49.6742C116.802 50.3121 114.526 51.012 111.456 51.771L111.582 52.2797ZM120.814 48.3519H121.338C121.338 47.9613 121.215 47.6024 120.953 47.31C120.7 47.0277 120.351 46.8434 119.958 46.7254C119.182 46.4928 118.089 46.4751 116.729 46.6224L116.786 47.1434L116.842 47.6643C118.168 47.5207 119.089 47.5589 119.656 47.7292C119.935 47.8126 120.089 47.9165 120.172 48.0091C120.246 48.0915 120.29 48.1942 120.29 48.3519H120.814ZM116.786 47.1434L116.567 46.6672L110.356 49.5208L110.575 49.9969L110.794 50.473L117.004 47.6195L116.786 47.1434ZM135.82 44.6927L135.851 45.2158L135.856 45.2154L135.82 44.6927ZM140.319 45.6327L139.932 45.9862L139.937 45.992L139.943 45.9976L140.319 45.6327ZM141.427 47.6805H140.903V47.6902L140.903 47.6999L141.427 47.6805ZM141.057 49.2583L141.5 49.5382L141.507 49.5279L141.057 49.2583ZM133.168 55.1668L132.867 54.7383L132.836 54.7597L132.809 54.7852L133.168 55.1668ZM131.523 57.886L131.174 58.2765L131.18 58.2818L131.186 58.2868L131.523 57.886ZM134.31 58.0874L134.391 58.6051L134.446 58.5965L134.498 58.5763L134.31 58.0874ZM156.567 52.8168V52.2929H156.52L156.474 52.3011L156.567 52.8168ZM141.326 57.9532L141.219 57.4403L141.184 57.4476L141.151 57.4594L141.326 57.9532ZM128.2 61.2431L127.889 61.6649L127.895 61.6695L127.901 61.6739L128.2 61.2431ZM127.595 58.4232L128.089 58.5994L128.098 58.5741L128.104 58.548L127.595 58.4232ZM134.712 51.8768L135.017 52.3034L135.049 52.2801L135.078 52.2521L134.712 51.8768ZM137.331 49.3255L137.697 49.7008L137.75 49.6488L137.787 49.584L137.331 49.3255ZM132.497 48.1505L132.681 48.6411L132.686 48.6393L132.497 48.1505ZM128.905 51.004L129.396 51.1869L129.397 51.1838L128.905 51.004ZM126.89 52.6154L126.84 53.1371L126.852 53.138L126.89 52.6154ZM125.548 50.0305L125.234 49.6105L125.027 49.765L125.024 50.0233L125.548 50.0305ZM135.82 44.6927L135.856 45.2154C136.971 45.139 137.864 45.1798 138.55 45.3231C139.238 45.4669 139.674 45.7045 139.932 45.9862L140.319 45.6327L140.705 45.2791C140.247 44.7776 139.576 44.4669 138.764 44.2973C137.95 44.1273 136.953 44.0898 135.784 44.1699L135.82 44.6927ZM140.319 45.6327L139.943 45.9976C140.652 46.7287 140.903 47.2844 140.903 47.6805H141.427H141.951C141.951 46.8681 141.462 46.0586 140.695 45.2677L140.319 45.6327ZM141.427 47.6805L140.903 47.6999C140.922 48.2191 140.816 48.6413 140.608 48.9887L141.057 49.2583L141.507 49.5279C141.835 48.9801 141.976 48.3504 141.95 47.6611L141.427 47.6805ZM141.057 49.2583L140.614 48.9785C140.619 48.9705 140.593 49.0085 140.486 49.1093C140.391 49.1995 140.256 49.3168 140.079 49.4629C139.727 49.7544 139.224 50.1445 138.57 50.635C137.261 51.6151 135.361 52.9824 132.867 54.7383L133.168 55.1668L133.47 55.5952C135.967 53.8374 137.877 52.4632 139.198 51.4738C139.858 50.9795 140.375 50.5779 140.747 50.2707C140.932 50.1174 141.087 49.9837 141.206 49.8711C141.314 49.769 141.428 49.6524 141.5 49.5381L141.057 49.2583ZM133.168 55.1668L132.809 54.7852C132.04 55.5088 131.48 56.1332 131.167 56.6496C131.012 56.9057 130.891 57.1784 130.865 57.4522C130.836 57.7536 130.926 58.0544 131.174 58.2765L131.523 57.886L131.873 57.4955C131.908 57.5274 131.907 57.5723 131.908 57.5519C131.913 57.504 131.945 57.3893 132.064 57.1921C132.3 56.8021 132.774 56.2571 133.527 55.5483L133.168 55.1668ZM131.523 57.886L131.186 58.2868C131.523 58.5708 131.994 58.6909 132.501 58.7276C133.021 58.7651 133.654 58.7202 134.391 58.6051L134.31 58.0874L134.229 57.5697C133.533 57.6785 132.986 57.7119 132.577 57.6823C132.155 57.6519 131.949 57.5593 131.861 57.4852L131.523 57.886ZM134.31 58.0874L134.498 58.5763C138.564 57.0073 145.938 55.2575 156.66 53.3326L156.567 52.8168L156.474 52.3011C145.755 54.2256 138.291 55.9895 134.121 57.5986L134.31 58.0874ZM156.567 52.8168V53.3408C157.405 53.3408 157.986 53.4 158.341 53.4981C158.52 53.5476 158.599 53.5958 158.625 53.6168C158.634 53.6247 158.594 53.5883 158.594 53.5218H159.118H159.642C159.642 53.2203 159.496 52.9783 159.293 52.81C159.106 52.6547 158.866 52.556 158.62 52.488C158.125 52.3512 157.43 52.2929 156.567 52.2929V52.8168ZM159.118 53.5218H158.594C158.594 53.3958 158.644 53.3082 158.671 53.2696C158.685 53.2489 158.698 53.2348 158.706 53.2268C158.714 53.2187 158.719 53.2143 158.721 53.2133C158.722 53.212 158.715 53.2177 158.695 53.2298C158.675 53.2414 158.648 53.2562 158.611 53.2741C158.458 53.3485 158.207 53.4457 157.843 53.5653C157.12 53.8025 156.023 54.1052 154.544 54.4737C151.588 55.2098 147.148 56.1985 141.219 57.4403L141.326 57.9532L141.433 58.466C147.366 57.2236 151.822 56.2316 154.797 55.4906C156.283 55.1206 157.41 54.8105 158.17 54.561C158.547 54.4372 158.852 54.3224 159.07 54.2164C159.176 54.1647 159.286 54.1034 159.377 54.0301C159.423 53.9933 159.481 53.94 159.531 53.868C159.581 53.7961 159.642 53.6772 159.642 53.5218H159.118ZM141.326 57.9532L141.151 57.4594C137.216 58.8564 134.172 59.8234 132.009 60.3656C130.925 60.6371 130.08 60.7978 129.462 60.8557C129.153 60.8847 128.917 60.8864 128.745 60.8687C128.659 60.86 128.597 60.8473 128.554 60.8344C128.511 60.8214 128.496 60.8111 128.498 60.8123L128.2 61.2431L127.901 61.6739C128.116 61.8226 128.382 61.8851 128.638 61.9112C128.903 61.9383 129.213 61.9316 129.56 61.8991C130.255 61.8339 131.159 61.6588 132.263 61.3821C134.475 60.8276 137.557 59.8475 141.501 58.4469L141.326 57.9532ZM128.2 61.2431L128.511 60.8213C128.177 60.5758 127.994 60.2904 127.923 59.9583C127.849 59.6135 127.886 59.1682 128.089 58.5994L127.595 58.4232L127.102 58.2469C126.858 58.9315 126.771 59.5828 126.898 60.1779C127.029 60.7858 127.372 61.2838 127.889 61.6649L128.2 61.2431ZM127.595 58.4232L128.104 58.548C128.15 58.3602 128.299 58.072 128.615 57.6718C128.925 57.2803 129.366 56.8177 129.948 56.2826C131.111 55.2128 132.797 53.8872 135.017 52.3034L134.712 51.8768L134.408 51.4503C132.174 53.0446 130.447 54.399 129.238 55.5113C128.634 56.0672 128.149 56.5712 127.793 57.0218C127.444 57.4637 127.186 57.8931 127.087 58.2983L127.595 58.4232ZM134.712 51.8768L135.078 52.2521L137.697 49.7008L137.331 49.3255L136.965 48.9502L134.347 51.5016L134.712 51.8768ZM137.331 49.3255L137.787 49.584C138.009 49.1913 138.18 48.8302 138.288 48.5043C138.394 48.1839 138.452 47.8616 138.413 47.5614C138.37 47.2399 138.215 46.9555 137.934 46.7645C137.674 46.5876 137.356 46.5255 137.04 46.5188L137.029 47.0427L137.018 47.5665C137.228 47.571 137.317 47.6124 137.345 47.6313C137.352 47.6362 137.366 47.6399 137.374 47.6989C137.384 47.7791 137.374 47.9296 137.293 48.1744C137.214 48.4136 137.078 48.7099 136.875 49.067L137.331 49.3255ZM137.029 47.0427L137.04 46.5188C135.881 46.4941 134.29 46.8959 132.308 47.6617L132.497 48.1505L132.686 48.6393C134.643 47.8832 136.073 47.5464 137.018 47.5665L137.029 47.0427ZM132.497 48.1505L132.313 47.6599C130.296 48.4161 128.917 49.4425 128.413 50.8242L128.905 51.004L129.397 51.1838C129.743 50.2379 130.758 49.362 132.681 48.6411L132.497 48.1505ZM128.905 51.004L128.414 50.8211C128.221 51.3381 127.992 51.6641 127.755 51.8538C127.53 52.0336 127.266 52.1175 126.929 52.0928L126.89 52.6154L126.852 53.138C127.433 53.1805 127.963 53.0293 128.41 52.6721C128.844 52.3246 129.163 51.8113 129.396 51.1869L128.905 51.004ZM126.89 52.6154L126.941 52.0939C126.67 52.0674 126.479 51.944 126.332 51.6605C126.166 51.3421 126.061 50.8199 126.072 50.0376L125.548 50.0305L125.024 50.0233C125.012 50.8748 125.119 51.6003 125.402 52.1436C125.702 52.7217 126.193 53.0739 126.84 53.1369L126.89 52.6154ZM125.548 50.0305L125.861 50.4504C128.142 48.7479 130.12 47.4648 131.798 46.5928C133.485 45.7165 134.829 45.2765 135.851 45.2158L135.82 44.6927L135.789 44.1696C134.551 44.2432 133.053 44.7599 131.315 45.6629C129.569 46.5702 127.541 47.8888 125.234 49.6105L125.548 50.0305Z" fill="#F4A85C" mask="url(#path-1-outside-1_338_407)"/>
</svg>
